<svg xmlns="http://www.w3.org/2000/svg" fill="none" viewBox="0 0 48 48" id="Fork-Plate--Streamline-Plump.svg" height="48" width="48"><desc>Fork Plate Streamline Icon: https://streamlinehq.com</desc><g id="fork-plate--fork-plate-food-dine-cook-utensils-eat-restaurant-dining-kitchenware"><path id="Union" fill="#6565d1" fill-rule="evenodd" d="M2.1114 3.3815C2.401 1.6691 3.8962 0.48 5.6065 0.48H5.9115C6.0543 0.48 6.1908 0.5384 6.2894 0.6416C6.388 0.7448 6.4401 0.8838 6.4337 1.0264L5.9695 11.2383C5.9367 11.9593 6.4946 12.5703 7.2155 12.603C7.9364 12.6358 8.5473 12.0779 8.5801 11.3571L9.0518 0.9789C9.0645 0.6998 9.2945 0.48 9.5739 0.48H12.2929C12.5723 0.48 12.8024 0.6998 12.815 0.9789L13.2868 11.3571C13.3195 12.0779 13.9305 12.6358 14.6514 12.603C15.3723 12.5703 15.9302 11.9593 15.8974 11.2383L15.4332 1.0264C15.4268 0.8838 15.4788 0.7448 15.5774 0.6416C15.6761 0.5384 15.8126 0.48 15.9553 0.48H16.2598C17.9697 0.48 19.4646 1.6685 19.7546 3.3806C20.2385 6.2378 20.9163 11.235 20.8618 16.5789C20.8316 19.5474 18.8446 22.2157 15.7257 22.9148C15.2711 23.0167 14.793 23.111 14.2966 23.1921L16.222 41.532C16.5103 44.2787 14.7999 47.0393 11.9527 47.4354C11.585 47.4867 11.2333 47.52 10.9338 47.52C10.6345 47.52 10.2828 47.4867 9.9151 47.4354C7.0679 47.0393 5.3574 44.2788 5.6458 41.532L7.5712 23.192C7.0749 23.1109 6.5969 23.0166 6.1424 22.9148C3.0233 22.2157 1.0362 19.5473 1.0059 16.5786C0.9515 11.2354 1.6282 6.2389 2.1114 3.3815ZM45.4292 1.3671C33.0169 1.3671 22.9547 11.4293 22.9547 23.8416S33.0169 46.3161 45.4292 46.3161C46.2951 46.3161 46.9972 45.6141 46.9972 44.7481V37.8674C46.4823 37.9242 45.9592 37.9535 45.4292 37.9535C37.6354 37.9535 31.3173 31.6353 31.3173 23.8416S37.6354 9.7297 45.4292 9.7297C45.9592 9.7297 46.4823 9.759 46.9972 9.8158V2.9351C46.9972 2.0691 46.2951 1.3671 45.4292 1.3671ZM45.4292 34.8175C45.9616 34.8175 46.4851 34.7796 46.9972 34.7064V12.9768C46.4851 12.9036 45.9616 12.8657 45.4292 12.8657C39.3673 12.8657 34.4533 17.7798 34.4533 23.8416S39.3673 34.8175 45.4292 34.8175Z" clip-rule="evenodd" stroke-width="1"></path></g></svg>